<svg width="192" height="192" viewBox="0 0 192 192" xmlns="http://www.w3.org/2000/svg">
  <!-- Background -->
  <rect width="192" height="192" fill="#000000" rx="32"/>
  
  <!-- Phone icon -->
  <g transform="translate(96, 96)">
    <!-- Phone receiver -->
    <path d="M -35 -25 Q -40 -30 -35 -35 L -25 -45 Q -20 -50 -15 -45 L -5 -35 Q 0 -30 -5 -25 L -10 -20 Q -5 0 10 15 Q 25 30 45 35 L 50 30 Q 55 25 60 30 L 70 40 Q 75 45 70 50 L 60 60 Q 55 65 50 60 Q 15 40 -15 10 Q -45 -20 -30 -20 Z" 
          fill="#10b981" 
          stroke="#10b981" 
          stroke-width="2"/>
    
    <!-- Signal waves -->
    <path d="M 25 -30 Q 35 -25 35 -15" 
          fill="none" 
          stroke="#10b981" 
          stroke-width="3" 
          stroke-linecap="round"/>
    <path d="M 32 -38 Q 45 -30 45 -15" 
          fill="none" 
          stroke="#10b981" 
          stroke-width="3" 
          stroke-linecap="round"/>
    <path d="M 38 -45 Q 55 -35 55 -15" 
          fill="none" 
          stroke="#10b981" 
          stroke-width="3" 
          stroke-linecap="round"/>
  </g>
</svg>
